<svg xmlns="http://www.w3.org/2000/svg" xmlns:xlink="http://www.w3.org/1999/xlink" xml:space="preserve" id="Layer_1" x="0" y="0" style="enable-background:new 0 0 1921 528" version="1.1" viewBox="0 0 1921 528"><style>.st1,.st2{fill:none;stroke:#000;stroke-width:1.6158;stroke-miterlimit:10}.st2{stroke-width:.8129}</style><defs><path id="SVGID_1_" d="M-2.3-3.9H1927V532H-2.3z"/></defs><clipPath id="SVGID_00000180350262152474964850000016068965869866711689_"><use xlink:href="#SVGID_1_" style="overflow:visible"/></clipPath><g style="clip-path:url(#SVGID_00000180350262152474964850000016068965869866711689_)"><path d="M-4.3 275.3c58.8 26.7 100.8 45.8 105.4 48 .7.3 2.7 1.3 5.5 2.3 2.4.8 3.7 1.1 7.4 2.1 5.6 1.5 8.4 2.2 9.9 2.9 4 1.8 4.2 3 7.4 4.6 2.3 1.1 5.3 2 12.2 1.9 11.8-.2 20.9-3 20.9-3 17-5.3 30.2-14.3 32.7-16 15-10.1 30.7-19.2 46-28.9 28.4-18 53.4-26.8 72.7-33.5 17.1-6 36.8-10.1 76.3-18.6 29.9-6.4 44.9-9.7 66.6-12.9 35-5.3 58.8-6.4 79.9-7.4 21.8-1 31-.6 40.5.8 14.8 2.1 27.4 5.9 41.9 10.3 13.5 4.1 21.1 7 28.9 9.7 39.2 13.6 72.8 18.2 94.4 21.1 26.8 3.6 37.6 3 43.4 2.5 4.1-.4 19.9-1.9 40.5-9.1 19.9-7 33.3-15.3 38.6-18.5 38.8-22.9 82.5-25.1 93.6-25.9 1.4-.1 6.3-.4 12.7-1.7 7.9-1.7 14.2-4.1 16.2-4.9 6-2.4 5.9-3.1 10.1-4.6 6.2-2.1 10.8-2.2 15.8-2.5 1.9-.1 9-1.2 23.2-3.2 15.4-2.2 15.6-3.4 37.3-7.4 11.7-2.2 21-3.5 29.1-4.8 9.1-1.4 10.9-1.5 31.4-4.4 20.4-2.9 22.6-3.3 25.1-3.8 13.9-2.9 14.1-4.5 26.3-6.9 7.4-1.4 14.1-2 27.4-3 15.6-1.3 14.8-.6 25.9-1.7 13.4-1.3 16-2.5 28.4-3.4 7.2-.6 12.3-.6 19.6-.8 7.2-.1 20.6-.2 46 1.1 21.1 1.1 19.8 1.5 31.6 1.9 14.2.4 24.3 0 39-.6 15.6-.6 38.7-1.6 68.9-5.1 16.2-1.9 32.6-4.3 42.6-5.7 22.5-3.3 32.3-5.1 48.3-5.1 11.9 0 10.7 1 25.5 1.1 6.6.1 13.9 0 44.9-2.3 23.2-1.7 25.6-2.1 40.5-3 8-.3 26.1-1.3 34.1-1.7 0 0 158.1.9 178.8 1.5 20.7.5 32 1 32 1" class="st1"/><path d="M-4.3 312.4c12.7 5.3 30 8.1 37.3 8.9 16.5 1.9 17.2-.2 36.1 2 6.5.8 14 2.1 23.7 1.4 5.9-.4 10.8.6 14 .7M-3.7 391.7c8.5-3.4 17-6.8 25.5-10.1 10-3.9 18.3-7.7 24.7-10.8 7-3.4 10.9-5.3 16.4-8.6 6.1-3.6 7.6-5 15.6-9.7 8.3-4.9 11.7-6.2 13.3-6.9 2.4-.9 6.6-2.5 12.4-3.6 3.5-.6 3.8-.3 9.7-1.3 5.3-.9 7.4-1.2 9.8-2.1 2.6-1 5.6-3.1 6.9-4m7 2.3c-.5.3-2.7 1.8-3.6 2.3-4.2 2.2-7.6 3.2-8.6 3.6-3.1 1.4-7.9 3.5-15 7-2.1 1-11.8 5.9-25 13.3-9.8 5.5-17 9.9-18.7 11-5.1 3.1-5.2 3.4-17.8 11.4-13.5 8.6-13.7 8.7-18.7 12-6.3 4.2-11.5 7.7-18 12.8-6.4 5-11.4 9.6-14.8 12.8l-1.8 1.8m1.2 60.7c20.1-20.7 28.8-34.2 35.2-41.1 2.7-3 7.1-7.8 12.2-13.8 3.5-4.1 5.3-5.9 13.7-13.4 5.4-4.9 5.7-5.3 9-8.2 9.1-8.1 17.3-13.4 27.2-19.9 8.6-5.6 10.6-6.5 16.5-11 4.5-3.4 7.9-6.4 11.7-10 6.2-5.7 20.9-20.6 31.8-32.1M-4.3 515.6c2.4-2.2 6.1-5.4 10.7-9.1 5.2-4.1 7.5-5.5 11.1-8.3 8.2-6.3 13.7-12.3 16.3-15.1 5.6-6.2 9-11.3 15.1-20.6 6.1-9.1 6-10.1 10.8-16.8 4.6-6.4 8.5-10.8 12.6-15.4 9.9-11.2 11.2-11.1 20.6-21.4 8.3-9.2 8.7-10.9 17.1-20.3 6.9-7.7 12.9-13.5 16.8-17.1 5.6-5.3 11.3-11.2 17.1-17.7 4.6-5.1 13.2-14.2 17.2-19.1m-165.4 222c7.3-5.1 13.6-9.5 18.7-13.1 13.4-9.5 16.9-12.2 18.8-13.7 7.1-5.5 11.7-9.2 17.1-14.6 7.8-7.8 14.4-14.3 18.8-24.5 4.3-9.9.9-10.2 6-26 4.4-13.8 9.9-22.7 11.7-25.4 2.8-4.3 5.4-7.5 10.6-13.7 9-10.8 13.3-14.8 20.8-23.1 8.6-9.6 6.3-8.2 21.1-26 8.5-10.2 14.7-17.2 23.4-27.4 3.5-4.1 11.4-14.2 17.8-21.8" class="st2"/><path d="M-4.3 584.3c4.7-3.8 8.7-7 11.9-9.3 7.4-5.5 11.1-8.3 16.1-10.9 3.3-1.7 4.4-2 7.7-4 4.1-2.5 7-4.7 9.8-7 4.2-3.3 5.1-4.6 10.3-8.9 4-3.3 4-3.1 8.9-7 4.7-3.8 9.3-7.5 14.5-12.6 3-3 6-5.9 9.3-10.3 4.2-5.5 7.9-10.3 9.8-17.3.5-1.9.7-6.5.9-15.4.3-9.6.2-12.6.5-19.1.2-6.2.4-11.4.9-14.9.2-1.1 1.1-21.8 3.2-24.2M-3.6 638.2c8.7-7.4 20.4-17 30.9-24.5 17.2-12.3 35.2-22.1 54-32.7 15.5-8.7 16.4-8.8 20.9-12.2 15.5-11.5 24.9-25.4 30.4-35.8 3.4-15.2 6.6-31.1 9.5-47.6.7-3.8 2.6-17.2 6.9-43.8 1.1-7.2 2.1-12.8 5.7-19.4 4.7-8.5 10.7-13 19-19.4 0 0 4.3-3.3 29.3-23.2 16.2-12.9 26.9-21.4 36.9-35.8 11.3-16.2 16.3-32.1 19-40.7 3.1-9.9 5.1-20.3 6.1-26.8" class="st2"/><path d="M307.9 258.3s-17.7 56.2-57.3 103.8l-21.5 24.7-24.4 26.4-12.6 13.9s-12.4 17.3-18.3 41.5c0 0-15 45.3-20.2 52.9 0 0-23.8 51.6-63.7 76.3 0 0-61.5 33.1-93.6 63.4" class="st2"/><path d="M336 249.8s-7.3 58.2-57 103.9l-18.6 19.4-26 24.8s-30.8 28.5-35.4 73.4c0 0-12.6 46-35.7 70.8s-43.1 48.2-43.1 48.2v1.4s-58 61.9-79.3 112.5c0 0-9.2 21.4-44.5 46.7" class="st1"/><path d="M-3.3 756.5s30.2-15.8 56.9-51.1c0 0 41.8-51.7 42.7-53.4.9-1.6 28.8-36.6 32.9-41.1l11.1-10.9s19.8-17.7 19.8-18.3 51-56.1 51-56.1l42.4-44s46.6-48 46.6-47.6 13.5-12.7 13.5-12.7l58.4-52.7 78.8-63s69.3-54.4 69.1-55 43.6-34.8 43.6-34.8" class="st2"/><path d="M41.9 750.1s42.2-38.4 80.8-79.1c0 0 72.5-78.1 82.6-93.8 0 0 27-36 38.7-48l20.8-21 77.9-81s19.5-15.1 24.4-19.6 28.2-21 28.2-21S443 360 443 358.8c0-1.1 69.1-39.8 69.4-40.9.4-1.1 60.4-34.5 60.4-35.7 0-1.1 47.7-28.9 47.7-28.9s23.5-15.1 24-18m-163.8-14.2-48.9 39.7-17.9 20.2-49.1 60.4-21.2 22.3-24.9 25.5-20.5 19.4-18.6 18.6-16.8 12-20.2 18-12.6 11.5-12.2 11.8-11.4 10.3-6.8 8.8-23.4 25.3" class="st2"/><path d="M694.4 249.8c-2.4 2.7-8.8 10.2-14.9 14.8-15 11.3-29.9 14.7-34.3 15.8-22.3 5.6-59.6 24.3-134.1 61.7-19.6 9.8-42.4 22.8-88.2 48.8-9.1 5.2-22 12.6-37.7 24.5-17.5 13.4-29.1 25.4-36.8 33.4-36.8 38.3-68.4 73.2-83.9 90.2-24.6 27-36.9 40.5-51.7 55.9-33.4 35-42.1 41.9-61.4 65.4-19.3 23.4-35.5 46.7-37.7 49.9-4.6 6.7-11.9 16.6-14.6 20.8" class="st2"/><path d="m147.9 704.3 48.3-52.3 51.4-56 49.8-62 50.2-55.6 39.2-43.4 25.5-22.8s23.6-15.6 38.4-23.2 113-57.8 113-57.8 59-28.6 60.5-29.8c1.5-1.1 46-20.6 46-20.6l31.6-17.9 14.2-9" class="st2"/><path d="M-3.3 762.5s41.2-11.4 53.9-14.9c12.7-3.4 48.7-16.8 48.7-16.8s39.2-20.5 39.8-21.1 17.6-10 22.6-15.2c5-5.3 66.2-66.1 66.2-66.1s55.4-59.2 55.7-60.2c.3-.9 33.8-33.5 33.8-33.5l35-26.7 71.6-46.1s72-47.6 72-48.8c0-1.2 44-31.3 44-31.3l47.5-27.3 48.4-21.1 33.5-17.1 69.2-23.9s59.1-23.1 77.1-37.1" class="st1"/><path d="M328.5 526.5c-.9.5-10.8 35-11.2 41.8-.4 6.8-.9 17-.9 17s-.1 10.2-9.8 25.1c0 0-27.7 41.6-34.3 56.3 0 0-12.9 30.7-17.4 38.6 0 0-11.3 27.1-45.8 37.7L88.8 781.6 21 800.1l-23.7 8.6" class="st2"/><path d="m-2.3 834.7 51.6-17.5s60.1-17.5 61.3-17.9c1.1-.4 42.6-13.3 42.6-13.3l25.9-9.2s40.1-10.4 70.4-45.8c0 0 13.7-15.8 16.4-20 0 0 6.1-8.8 7-11.2 0 0 7.6-13.7 8.1-14.3s9.4-17.7 9.4-17.7l15.2-27 12.9-21.1 7.4-12.4 6.1-10.1s3.3-9.3 2.1-12.8c-1.1-3.6-.1-16.8.2-22.7.3-5.9 12-40.8 12-40.8l6-12.6" class="st2"/><path d="M-3.6 853.4S52 838.5 52.8 838s41.5-10.8 42.3-11.1c.8-.3 41.7-9.2 41.7-9.2l33.3-7.6 36-13s37.4-7.4 52.8-45.4 24.4-53.7 24.4-53.7l24.7-38.2s23.8-32.8 24.1-33.6 19-23.1 21.4-51.9c2.4-28.8 5.4-37.2 5.1-38s5.4-22.8 5.4-22.8l8.1-17.7" class="st2"/><path d="M7.7 879.5c.9-.3 31.3-9.8 32.7-10.4 1.4-.6 7.8-4.3 25.4-4.9 17.6-.6 44.7-10.8 44.7-10.8l15.9-8.8s8.1-11.8 29.4-15.9c21.3-4 43.3-15.9 43.3-15.9s36.5-14.8 53.1-38c0 0 15.5-16.2 31.1-56.7 0 0 16.6-35.5 30.5-53.5s35.7-48.7 35.7-48.7l8.7-13s12.3-21.1 12.5-48.6 4.5-38.6 4.5-38.6 7.9-21 15.2-31.6" class="st2"/><path d="m111 879.5 45.9-22.5 36.2-20s26.6-15.2 27.2-15.4c.7-.2 12.7-9.1 17.8-14.5l18-20.8 14.3-20.3s24-43.5 24-44 13.2-23.9 26-37.8c12.8-13.9 27.8-32 27.8-32s32.4-42.6 37.4-71.1 5.9-39.4 5.9-39.4 4.4-47.7 23.7-73.9" class="st2"/><path d="M268.7 795.9s24.6-32 32.2-51.5c0 0 16.5-38.7 41.5-68.9 24.9-30.2 1.2 0 1.2 0l40.5-51.1s23.6-22.5 24.4-69.1c0 0 5.1-53.7 8.7-64.2 3.5-10.6 8.1-20.9 9.2-23.8 1.1-3 1.9-7.8 1.9-7.8" class="st2"/><path d="m441.9 450.4-.4 9s-4.2 10.8-7.3 21.6c-3.1 10.8-8.1 38.4-5 84 0 0 12.3 48.3-33.6 81.1-46 32.9-68.8 85.3-80.9 119.2" class="st2"/><path d="M465.5 434.6s-28.8 40.9-19.7 128c0 0 10.8 49.1-33.2 89.4-44 40.3-68.1 82-69.7 99.5" class="st2"/><path d="M359.9 744.4s-4.6-16.3 50.6-65.8c0 0 48-35.8 46.8-99.7-1.1-63.9-7.4-105.7 20.8-152.9" class="st2"/><path d="M491.2 417.1s-36.2 42.8-19.8 182.1c0 0 13.7 46.8-38.4 81.1 0 0-27.4 20.6-51 56.7" class="st2"/><path d="M418.2 724s23.1-25.1 23.3-26.6c.2-1.5 44.7-33.1 40.9-83.5-3.8-50.4-4.3-110-4.3-110" class="st2"/><path d="M446.5 714.5s55.3-50.9 50.9-103-10-63.7-10-63.7-9.2-31.6-8.4-39.4c.8-7.8 1.2-12.3 5.2-18.6 4-6.3 19.4-27.5 49.9-44.7 30.5-17.2 65.9-35 65.9-35l43.1-20.6 43.7-19.8 15-7s29.8-14 36.8-34.2c0 0 1.4-5.2 9.4-17.2s13.6-18.6 13.4-19.2 2.8-7.9 3.1-9.6" class="st2"/><path d="M489.4 465.7s21.4-27.5 88.1-58.8c66.8-31.2 81.9-39.3 81.9-39.3s65.8-27 84-72.4v-4.1" class="st2"/><path d="M713.4 301.4s-22.3 51.6-85.2 71.2c0 0-7.6 2.8-8.3 3.1-.7.2-22.3 9.7-23 9.9-.7.2-41.7 18.9-42.6 19.4-.9.5-52.5 27.9-58.1 39.9" class="st2"/><path d="M688.5 310s-5.4 34-56.6 49.6c-51.1 15.6-81.4 29.8-81.4 29.8s-31 15.6-39.1 30.3l-10.1 11.6" class="st2"/><path d="M514 404.4c.7.2 14.3-13.3 45.8-27.4s41.7-17.2 41.7-17.2 35.2-14.6 45-25.6l10.4-11.3M580.2 527s-5.3 88.5-6.1 88.7c-.9.3-3.7 24-8 33.7s-15.7 35.7-16.5 36.3c-.9.6-8.6 21.7-54.5 74.8 0 0-56.8 52.2-57.7 53.1-.9.9-44.5 46.5-45.7 47.4-1.1.9-11.2 12.5-15 19.6" class="st2"/><path d="M596.7 508.4s-3 27.2-3.8 41.5c-.9 14.3 15.9 72.1-31.4 151.1-47.2 79-62.4 90.3-62.4 90.3s-39.9 46.4-41.2 47.8c-1.3 1.3-22.4 32-26.1 41.5" class="st2"/><path d="M480.5 880.6s15.6-48.5 38.2-79.3c22.6-30.8 45.6-65.8 46-68.5s10.4-17 10.8-19.6c.4-2.6 25.2-59.1 25.2-59.1s19.3-39.5 4.7-79.7c0 0-1.3-37.2 0-50.6 1.3-13.4 3.9-27.5 3.9-27.5" class="st2"/><path d="m624.4 480.8-3.1 28.9s1.8 12.9 3.5 22.4c1.6 9.5 8.8 28.2 8.8 28.2s17.3 23.6-5.1 75.5c-22.4 52-51.1 92.4-51.1 92.4l-36.5 58.2s-35.3 61-26.5 94.1" class="st2"/><path d="M528.4 880.6s-12.8-42.4 27.8-102.7c40.5-60.2 75.2-99.2 75.2-99.2l34.9-44s32.5-37.4 0-84.1c-32.5-46.7-21.9-68.4-22.6-68.6-.7-.2 6.1-27.1 5.4-27.1" class="st1"/><path d="m658.4 445.2-1.3 16s-.2 37.9 23.5 68.7c23.6 30.8 29.9 41.4 29.9 41.4s25.4 38.5-22 78.5-59.1 59.3-60 59.6" class="st2"/><path d="M666 464.8s54.1 50.3 55.6 51.2 52.5 45.9 83.6 58.8l20.8 9.4 50.4 26.8 21.4 10.3s40.4 14.8 48 63.1c7.5 48.3 30.8 97.5 30.8 97.5l30.8 73.9 15.4 26.4" class="st2"/><path d="M1031.5 882.6s-8.1-10.3-21.7-51-28.1-99.9-29.3-100.5-13.6-57.2-14.5-57.7-6-47.9-30.8-53.6c0 0-31.1-14.1-32.4-14.1-1.3 0-62.4-30.4-62.8-30.3-.4.1-32.6-20.1-33.8-20.5s-64.7-48.5-64.7-48.5l-56.7-49.8s-19.5-17.2-20-17.4" class="st2"/><path d="M684.3 422.9c.2.6-7.6 13.7 29.1 38.2l65.5 44.5 38.4 25.3 21.3 12.9 33.9 16.9 35.2 17.5s47.8 22.3 63.4 69.3c15.6 47 17.5 46 17.5 46s1.5 12 1.3 12.2 15.2 65.5 15.2 65.5 4 15.4 29.7 56.3 40.7 54.5 40.1 54.5" class="st2"/><path d="m1100.8 882.6-50.6-68.3-26.4-40.9s-8-6.9-14.3-36.3c-6.3-29.5-12.6-52.5-12.6-52.5s-13.7-54.6-22.6-65.5c-8.9-10.8-18.3-32.5-55.6-51.2-37.3-18.6-121.4-69.2-121.4-69.2l-70.6-43s-23.4-16.2-25.7-28-2.5-12.7 0-15.6m-211 132c-.3-.4-6.1-53.8 42.7-84.7s56.5-32.4 56.5-32.4l58.9-27.4 50-22.6s40.1-17.1 50.9-42 17.9-34.7 17.9-34.7l12.9-21.6" class="st2"/><path d="m792.8 275.5-3 8.8s-9.8 8.9-16.6 28.8c-6.9 19.9-15.9 33.8-15.9 33.8s-10.7 28.9-63.2 48.2c-52.6 19.3-97.8 45.7-98.4 46.1S524.9 475 514 505.3c-10.9 30.3-11.3 48.1-9.4 65.4" class="st2"/><path d="M511.8 585c.2-1.4-1.8-44.7 49.8-84.3s51.6-41.3 51.6-41.3 15.4-11.9 22.9-16.5 50.7-30.8 50.7-30.8 22.1-14.2 31.5-19.1 43.6-21.9 50.1-41.9 17.7-44.4 17.7-44.4 12.3-24.5 16.8-32m6.4-.4c-1.1.7-22.6 32.3-17.2 43.3 0 0 5.5 12.1-5.7 29.3s-17.3 25.3-17.3 25.3" class="st2"/><path d="m815.7 275.5-9.2 15.9s-8.5 12.7-3.6 25.4c4.9 12.6-3.2 25.9-3.2 25.9s-12.6 19.3-13 19.7m33.5-85.8s.8 4.1-1.8 9c-2.7 4.9-5.9 13.2-5.9 13.2s-3.3 12.2 4.7 21.8c8 9.6-5.9 27.5-5.9 27.5m17.9-69.5c-.4-.2-6.1 12.9-4.3 21.3 1.8 8.5 4.7 14.8 4.7 14.8s6 14.1-1.5 21.8" class="st2"/><path d="M830.3 278.8s23.6 33.5 2.9 55m-115.9 68.9-3.9 18.7s-.5 5.7 9.9 13.1c10.4 7.5 17.9 14 17.9 14s17.3 10.4 18.5 11 41.5 22.4 41.5 22.4l49.6 25 36.4 20.9 33.1 19.1 36.1 24.2 8.7 6.3s10.7 9.9 17.3 31.6c6.6 21.8 22.1 63.6 22.1 63.6l10.2 36.7 10.2 35.5s25.4 39.1 26.3 39.1 20.9 27.8 20.9 27.8l25.1 35.2 24.7 35.5" class="st2"/><path d="M1148.4 883.3c-.9-.6-56-69.3-56-69.3l-31.4-44.9-24.5-44.7s-17-30.2-21.5-55.8c-4.5-25.7-9-55.5-9-55.5s1.2-25.1-26.6-42.7c-4.2-2.7-25.9-20.6-40.8-29.8-5.4-3.3-8.8-5.5-8.8-5.5-1.6-1.3-7.2-5.7-7.4-5.8-1.5-1.2-52.2-29.6-52.2-29.6l-34.2-15s-35.8-15.2-36.4-15.2c-.6 0-14.6-6.3-15.8-6.6-1.2-.3-15.5-9.6-16.7-9.6s-18.5-16.4-18.5-16.4l-12.8-17s-3-8.1 0-17.2c1.7-5 2.4-9.5 3.9-12.7" class="st2"/><path d="M1167.4 883.4s-10.1-14.7-11.3-14.9c-1.1-.3-31.4-43.4-31.4-43.4l-32.8-57-23.5-42.6-17.2-39.1-16.1-44.3-14-47.4-7.9-19.9s-3.6-8.5-11.7-14c-8-5.5-24.3-20.4-24.8-20.4S950 522.3 950 522.3s-24.8-15.1-25.4-15c-.6.2-44.2-23-45.4-23s-40-18-40-18l-32.8-16.5-16.1-9.3s-21.8-15.1-22.4-15c-.6.2-17-10.9-17.5-18.5s.3-23.8 0-23.7" class="st2"/><path d="m1196.2 883.3-45.2-74.8s-33.4-57-33.9-56.4c-.6.6-20.7-37.6-21.2-38.2-.6-.6-15.9-35.2-16.4-35.4-.6-.2-17.5-46.5-17.5-46.5l-15.5-37.2-11.6-23.6-8.1-15.9s-8.5-18.6-33.8-31.7l-42.2-20.9-59.9-31s-50-26.3-50.3-26.2c-.3.1-37.4-21-37.9-21s-20-11.8-20.4-11.9-13.6-7.6-13.6-7.6-7.2-3.3-3.1-14.1 3.7-18.9 3.4-18.9" class="st2"/><path d="M791.5 359.5s.4 5.4 0 5.8-1.1 10.6-5.7 16.9c-5.6 7.6 6.3 19.4 6.3 19.4l18.2 11.2 35.5 21.2 29.2 15 41.3 18.4 37 15.9 26.1 12.6 17.8 10L1014 516l10.6 6.9 8.8 7.4s22.3 21.4 30 38.6c7.7 17.2 14.7 30.6 14.7 30.6s18.2 38.2 17.9 38.3c-.3.1 29.8 68.8 29.8 68.8l8.2 20.3 7.3 12.3s10.3 11.9 11.3 18 7.3 20.4 7.3 20.4l15.5 35.1 17.2 32.7 26.2 38" class="st2"/><path d="M809.3 349.4s-3.8 24.8-4.2 25.5-6.2 15.5 2.1 20.9 28.4 17.6 28.4 17.6l44.9 23.7 49.7 23.5 43.1 22L1015 505l34.4 18.7 37 23.9s28 20.5 31 38.1 6.6 27.5 6.6 27.5l16.9 51.8 21.7 47.2 11.1 21.5 11.3 16.1 17.9 28 13.2 26.8 15.1 33.1 20.5 45.6" class="st2"/><path d="m1272.7 872-14.4-76.2s-6.6-26.8-19.7-42.6c-13.1-15.7-29.3-38.8-29.8-39.6s-25-38.6-25-38.6-17.5-34.6-17.9-35.1c-.3-.5-18.4-41.6-19.1-41.2-.7.3-19-39.4-19-39.4s-12.1-28.3-35.8-36.1c-23.7-7.8-52.2-23.4-52.8-23.9-.7-.5-57.6-28.7-58.3-28.8-.7-.2-46-24-47.4-25-1.3-1-51.2-28-51.2-28s-44.7-24.5-45.4-24.8-17.1-6.4-15.2-23.5c1.8-17.1 3.9-28.5 2.8-28.9" class="st2"/><path d="m831.8 334.7 2.6 28.1s-1.8 12.8 13 20.4c16.6 8.5 37.7 21.6 37.7 21.6l42.8 21.9 48.6 24 58.8 28.7 39.5 16.4 19.8 8.1s19.7 6.9 30.9 25.3 26 33.6 26 33.6 24 33.1 24.4 33.6 19.5 29.8 19.5 29.8l18.2 28.9s19.3 29.8 20.1 30.3c.7.5 18.4 24.7 18.4 24.7l15.7 22s12.8 11.6 19 42.5c6.1 30.9 10.8 32.7 10.8 32.7" class="st2"/><path d="M842 328.2c2.6 14.9 3.2 24.8 2.8 29.7 0 .4-.1 1.4 0 2.6.7 7.5 7.7 12.6 10.9 14.9 26.9 19.1 30.5 20.8 30.5 20.8 15.8 7.5 31.2 15.8 47 23.4 30.7 14.8 30.5 15.9 56.3 27.9 12.9 6 24 11.2 39.7 17.5 23.5 9.5 44 16.6 44 16.6 7.5 2.6 14.1 4.8 23.9 8.8 10.8 4.4 16.3 6.6 22.2 10 10.9 6.5 17.4 13.9 22.4 19.4 13.1 14.7 27.1 28.7 40.2 43.5 21.2 23.8 21 20.6 43 44.7 22.9 25.2 26.5 32.5 46.8 56 12.4 14.4 32.2 35.8 57.3 59" class="st2"/><path d="m1347.4 698.6-42.2-42.3-9-9.4s-12.5-12.1-13-12c-.5.2-14.6-15.6-14.6-15.6s-12-14.7-12.5-14.6c-.5.2-15.1-20.8-15.1-20.8s-23-30.1-23.6-30.1c-.5 0-17.7-22.7-18.4-22.5-.7.2-8.1-8.8-8.1-8.8l-21.7-15.1s-19.6-12-20.3-12-29.6-15.9-38.8-18.5c-9.2-2.6-42.5-12.5-42.5-12.5s-38.5-13-39.2-13-32.1-15.9-32.6-15.9-35.9-19.6-35.9-19.6l-43.8-24.1s-23.7-14.2-24.4-14-12.1-9.2-19.8-20.4c-7.6-11.3-14.9-29.5-15.4-29.4s-6.6-7.2-6.6-7.2" class="st2"/><path d="m857 307.4 10.2 15.8s14.1 23.1 27 33.1S941 390 941 390s45.6 27.3 65.5 33.9 49.1 18.4 76.7 26.4 33.8 9.2 33.8 9.2 21.7 6.8 31.5 15.1c9.8 8.4 29.3 20.7 29.3 20.7l16.2 11.9 6.1 5.1s15.8 12.7 22.3 22.1c6.6 9.4 34.2 34.2 34.2 34.2l42.6 37.5 42.6 38.6 29.4 25.9" class="st2"/><path d="M1386 656.4s-36.7-25.7-57.3-45.5c-20.7-19.9-46.5-50.8-47.1-50.1-.6.6-27.4-29.5-28-29.1s-19.2-18.8-19.9-18.6-27.8-22.3-28.9-22.5c-1-.2-23.1-15.8-23.1-15.8s-21.7-13.5-38.9-20.1c-17.2-6.6-65.9-23.5-66.5-23.3s-58.7-21.5-71.2-28.8-54-29.4-54-29.4-35.8-18.5-50.6-33.1c-14.7-14.6-27.2-26.5-27.2-26.5l-24.6-28.5" class="st2"/><path d="m864.6 291.3 23.5 18.2 20.7 13.7 16.6 11 17.2 11 22.1 14.7 24.8 16 21.7 12.3 17 8.8 24.3 11.3 30.9 11.7 20.1 6.6 14.3 6.1 29.5 10.2 14.9 6.3 21.3 9.6 17.6 9.6 20.1 14.1s56.9 43.8 64.3 48.3 65.3 45.6 65.3 45.6 32.1 19.4 36.4 22.5 19.2 11.7 23.7 11.9 16.2.1 16.2.1" class="st2"/><path d="m937.7 321.7 27.7 18.6s35 23.3 40.7 27.1 32.8 17.3 35.2 18.5 24.9 10.9 30.6 13.5 37.8 15 37.8 15l26.8 8.7 25.2 8.2s53 18.3 69.4 32.3 34.7 23.3 34.7 23.3l50.1 29.5 61.3 31.4 23.8 8.2" class="st2"/><path d="M1288.9 406.8c-.7.2 47.9 70.4 80.9 104.8s46.8 46.3 46.8 46.3 22.8 22.6 30.4 33.7c7.6 11.2 24.2 26.6 35.4 46.3 11.2 19.7 26.1 38.5 26.1 38.5l29.2 51.8 31.4 57 27.8 43.5 17.6 23.3 30.7 33.2" class="st2"/><path d="M1297.7 408s25.1 40.4 92.2 108.3c0 0 38.9 37 56.8 49.5s57.1 56.2 84.2 108.5c11.8 22.8 13.1 25.5 27.1 48.8 15.5 26 29.1 45.7 39.8 58.8 28.5 32.7 61.8 70.8 90.3 103.6" class="st2"/><path d="M1712 885.9c-1.4-.9-90.3-111.2-122.3-162.6-31.9-51.5-42.9-72.9-44.7-73.3-1.8-.5-23.9-50.5-55-73.5l-44.2-44.5s-67.9-65-69.7-66.1-42.8-34.3-48.2-46.7" class="st2"/><path d="m1359.3 432.2 55.3 56.9 42.9 42.1L1518 590s44.5 45.6 57.2 67.9 27 46.4 27 46.4l52.6 81.4s69.8 95.3 81.1 100.4" class="st2"/><path d="m1753.7 885.7-57.9-73s-39.1-56.3-49.6-73.8c-10.6-17.5-47.8-79.5-58.8-91.2s-24.2-39.3-43.2-56.2c-18.9-16.9-82.8-71.2-82.8-71.2l-45.3-43.8-31.4-33.4" class="st2"/><path d="M1407.1 450.9c.7 1.5 64.2 62.4 64.2 62.4l46.8 43.4 35 34.7 42 42.7s50 58.8 60.6 83.2c10.6 24.5 58.8 84.7 58.8 84.7l67.3 84.1" class="st2"/><path d="M1440.8 460.4s68 74.4 118.4 113.1 75.6 78.5 76.7 79.2 16.1 24.8 24.5 34.7 35 50.7 35 50.7l47.5 66.4 55.5 77.3 2.8 3.9" class="st2"/><path d="m1466.9 464 72.3 68.2 44.9 41.2s56.9 50.3 72.3 81.5c15.3 31.3 74.8 109.8 74.8 109.8l54 75.9s26.6 35.9 32.1 39.3l9.9 6" class="st2"/><path d="M1502.3 463.2c1.1 0 55.4 60 56.9 61.4 1.5 1.5 45.3 49.6 63.2 69.4 17.9 19.7 51.5 59.5 53.7 61.1s10.9 15 10.9 15l15.7 19.6s18.6 25.6 29.9 46.4c11.3 20.8 48.2 67.9 48.2 67.9s60.6 76.3 61.7 76.2l4.6 6.3M1524.6 460l62.8 66.1 59.9 61.7 53.3 60.6s30.7 35.4 38 54 39.4 62.4 39.4 62.4l49.3 69.7 36.9 47.4 2.7 4.2" class="st2"/><path d="M1540.7 454.8c1.1.7 14.8 14.6 16.3 15.4 1.5.7 58.4 59.5 58.4 59.5s57.3 56.9 57.3 57.3c0 .4 34.3 43.8 35.6 44.9 1.3 1.1 36.3 48.6 36.3 48.6l23.7 32.5s36.1 55.5 51.5 80.3c15.3 24.8 19 35.4 19.7 36.5s43.4 50 44.5 50.3l5.2 6.3" class="st2"/><path d="m1550.5 450.1 36.3 21.3 11.8 8s13.5 6.1 20.1 16.7c6.5 10.6 47.1 59.9 47.1 59.9s38.7 47.8 37.2 47.8 31.5 40.1 31.5 40.1l18.2 28.4 31.9 40.4L1854 803s64.4 78.5 68.7 81.3" class="st2"/><path d="M1921.2 835.5s-49.6-43.6-62.5-57.6-38.3-43.2-38.3-43.2l-39.1-48.2-28.4-35.9-9.5-13.4-17.4-19.7-45.9-64.1-15.5-19-21.2-25-23.1-28.1s-5.7-10.2-17.4-14.8c-11.8-4.5-42.5-23.9-43.2-22.6" class="st2"/><path d="M1564.8 436.9h3.1l19.3 7s54.2 27.5 92.5 85.5 53.5 78.5 53.5 78.5 47.8 63.7 77.4 93.3 82.7 69.4 82.7 69.4l28 17.1" class="st2"/><path d="M1921.2 753.2c-1.9-.4-89.8-61.8-117.9-90.3-28.1-28.4-60.3-66.7-60.3-67.1 0-.4-31.4-44-31.4-44l-34.2-43.2-29.2-34.9s-7.3-13.6-29.6-26.9c-22.3-13.3-39.1-20.1-44-20.1" class="st2"/><path d="m1592.3 417.6 32.4 12.5s7.2 2.7 17.8 23.4l21.2 19.1s17.8 20.5 17.1 22c-.8 1.5 24.5 33.8 30.8 42.9s28.7 35.6 28.7 35.6l25.1 30.7 28.4 34.1s7.6 8.3 50.4 36.8c42.9 28.4 78.8 47.8 76.9 48.9" class="st1"/><path d="M1921.3 697.8c-1.2-.4-97.1-58.1-97.1-58.1s-40.6-37-69.8-75.7c-29.2-38.7-49.3-58-49.3-58l-26.5-29.6s-3.2-6.8-5.8-6.1" class="st2"/><path d="M1684.2 470.6c-.4-1.5 24.2 17.1 24.2 17.1l17.6 17.8 19 26.2 28.4 42.5 19 22.4 21.2 20.9 25 17.4 25.5 14 39.4 16.4 17.8 6.9" class="st2"/><path d="M1699.3 471.1s28.2 22.4 35.7 33c7.6 10.6 31.5 42.1 31.5 42.1l27.7 36s18.6 31.6 79.3 57.5c60.7 25.9 47.8 21 47.8 21" class="st2"/><path d="M1716.5 471.5s42.5 28.3 63.7 65.5 31.9 49.3 31.9 49.3 25.8 20.5 41.7 27.7c15.9 7.2 70.2 30.1 68.7 29.8" class="st2"/><path d="M1740.1 471.1s23.4 6.8 52.5 60.7c29.2 53.9 34.1 55 34.1 55s3.8 4.2 32.2 14c28.4 9.9 68.5 34.1 66.4 33" class="st2"/><path d="m1761.6 470.2 11 9.9 31.1 37.5s12.6 10.1 22.4 42.1 95.2 65.2 95.2 65.2" class="st2"/><path d="M1780.7 472.5s30.5 39.5 45.7 63 33 36.6 33 36.6 53.4 36.2 61.8 35" class="st2"/><path d="M1786.5 473.7c1.5.4 14.1 10.2 14.1 10.2l38.7 43.2 24.7 28.1s42.7 35.6 57.2 38.7m-107.3-113 24.6 26.9 41 40.7s36.1 30.2 42.9 31m-82.7-88.9 39.8 42.3 26.5 21.2s10.3 8 15.2 9.1m-48.9-57.9 31.1 26.8s18.1 13.3 19 13.6" class="st2"/><path d="m799.8 274.2 37.5-18.3s10.8-7 20.5-8.9 23.9-5.3 23.9-5.3 20.8-8 28-13 15.8-7.2 15-9.4 3.4-8 2.3-7.8" class="st1"/><path d="M809.3 275.5s-2.1-3.3 9.6-5c11.7-1.7 56.1-11.4 56.1-11.4l48-9.4s14.3-4.4 16.9-6.9m-111.8 35.5c.8.2 18.3-.8 19.4-1 1.1-.2 53.9-8.5 53.9-8.5l41.6-9.7s23.8-9 29.3-16M856 287.8c1.7-.6 37.8-8 39.2-8s55.5-12.2 56.4-12.5c.8-.3 23.9-4.6 26.1-6.1 2.2-1.4 14.2-6.7 14.7-17.6m-114.9 51.6s26.4-5 27.2-5.8 71.6-15 72.5-15.3c.8-.3 35-7.9 35-7.9s29-10.3 35.7-22.5m47.9-.5s-37.1 32.3-67.6 33.7c0 0-112.7 21.4-113.5 21.7-.8.3-26.6 3.5-26.6 3.5" class="st2"/><path d="M904.7 309.5c-1.6.2 59.6-7.3 58.8-7.8-.8-.6 34.7-6.9 68-10.5 33.3-3.6 59.3 1.6 85.1-33.9" class="st2"/><path d="M917.1 314.3c0 .7 39-.6 39-.6s71.6-3.7 73-3.2c1.4.6 53.3-.8 75.2-19.7 21.9-18.9 38.3-22.8 37.2-23.3" class="st2"/><path d="M944.8 323.2c.8-.8 74-5.2 74-5.2s66.6-3.1 96.3-17.5 57.3-26.8 57.3-27.6" class="st2"/><path d="M960 328.3c.6-1.1 48.8-2.2 49.6-1.9.8.3 10.8-.1 10.8-.1s26.1 3.9 45.5-3l20.3-3.6s28.9-6.1 30-5.7 33.3-9.6 35-10.4 32.2-7.5 37.2-10.7 34.1-17.1 34.1-17.1" class="st2"/><path d="M980.6 334.9c1.4-.3 49.3-.2 49.3-.2s26.9-.3 48.9-4.9c21.9-4.6 68.6-14 69.4-14s47.3-8.9 47.3-8.9 19.3-1.7 24.6-5.3c5.3-3.6 48.6-23.1 47.7-22.8" class="st2"/><path d="M1016.2 350.2c1.1-.9 46.7-6.9 46.7-6.9l64.7-8.6 52.2-6.9s35.1-5.8 35.2-6.9 64.2-20.8 79.2-40.5" class="st2"/><path d="M1050.7 363.7c1.4-.4 24.7-6 25.5-6.3s20.8-6.1 20.8-6.1 26.7-4.4 40.8-5.8c14.2-1.4 65-6.9 65-6.9s46.6-8.3 71.3-22.9c24.7-14.6 88.4-35.1 87.3-34.8" class="st2"/><path d="M1073.8 371.9c1.1-.6 2.5-10.6 47.1-12s56.8-3.3 56.8-3.3 60.3-3 111.7-35c0 0 51.6-24.2 91.6-39.7" class="st2"/><path d="M1107.8 383.9c.6-1.7-2-13.7 37.4-14.3 39.3-.6 79.3-6.8 79.3-6.8s62.5-6.5 84.7-21.2 113.5-56.9 114.7-57.7c1.1-.8 4.8-1.1 4.8-1.1" class="st2"/><path d="M1136.7 394.1c.3-.8 18.1-13.6 18.1-13.6s5.6-4.7 30.3-5c24.7-.3 78-1.4 78-1.4s18.9 4.2 61.4-18.9c42.5-23 140.2-71.1 140.3-71.6" class="st2"/><path d="M1531 280.3 1403.3 337s-38.3 15.8-64.7 29.4c-26.4 13.6-83.8 17.2-84.7 16.9-.8-.3-55.5 2.8-55.5 2.8s-29.3-.6-42.3 15.8" class="st2"/><path d="M1195.3 420.8c-.1-1.1 2-19 49.7-22.6 47.8-3.6 104.9-11.1 104.9-11.1s36.6-2.2 106.1-36.4c69.4-34.1 149.4-75.2 149.4-75.2s9.2-5.3 8.4-5.9" class="st2"/><path d="M1665.4 263.6c.8-.3-25.8 32.5-96.3 71.1s-217.9 62.7-217.9 62.7l-72.2 7.1s-2.8.4-4.1 2.4" class="st2"/><path d="m1710.5 260.6-1.5 5s-88.3 78.6-112.4 86.1c0 0-43.9 31.1-111.6 41.1s-177.7 16.9-178.5 17.8" class="st2"/><path d="M1350.1 428.5c.8-1.2 78.2-1.9 79-2.2s45-2.2 46.1-2.8 27.8-4.4 27.8-4.4 17.4-1.7 18.8-1.5c1.4.1 13.9-1.3 13.9-1.3s5.8.6 15.4-4.7c9.6-5.3 44.6-30.3 44.6-30.3l54.7-35.9s73.8-38.2 75.2-38.7c1.4-.6 76.9-33.1 76.9-33.1" class="st2"/><path d="M1904.5 285.4s-32 9.6-32.8 9.9-73.3 16.7-73.3 16.7-28.3 5.8-78.6 25-92.4 59.1-93 60.2-46.9 27.2-46.9 27.2l-21.7 9.4s-44.1 13.6-58.6 16.7c-14.4 3.1-43.6 7.7-43.6 7.7s-13.5 2.6-13.7 2.5" class="st1"/><path d="M1923.3 307.7c-2.3 0-57.5 27.8-118.3 41.1s-106.3 33.9-109.9 43m-83.2 14.3c1.6-.2 24 8 24 8s5.6 0 6.1 9.7c.6 9.7 4.5 33.2 3.9 32.7m31.6-62.9s4.4 1.1-3.2 9.9c-7.4 8.6-18.9 36.5-18.1 34.5m47.6-45-23.8 25.3" class="st2"/><path d="M1921.2 345.4c2.1-1.2-8 3.1-29.7 6s-37.4 7.1-37.4 7.1-18.4 6.2-38.2 16.5l-38 19.1c-.7 1-19.1 1.6-19.1 1.6l-27.6 3.5c-1.4 1.9-10 8.3-10 8.3s-2.2.4-33.6 20.2c-31.4 19.8-37.8 32.2-37.8 32.2" class="st1"/><path d="M1921.2 468.2c-2.1.8-64-15-81.5-20s-41.4-2.5-41.4-2.5l-41.6 5.1s-78.1 6.8-78.5 7.3-25.8 4.2-25.8 4.2 3.6-2.9 10-7.3c10.6-7.4 29-19 51-28.4 35.3-15 46.4-18.9 46.4-18.9s11.3-4.6 18.1-11c6.8-6.4 9.9-7.4 9.9-7.4" class="st2"/><path d="m1654.3 460.9 68.8-25.7 73.9-27.8 65.4-23.9s25-8.3 37.8-9.4 22.1.6 21.1 0" class="st2"/><path d="M1923.3 417.6c0-1.3-22.5-15.1-23.4-15.1s-7.8-10.5-42.8 1.1c-35 11.7-82.2 23.7-82.2 23.7l-58 16.6-33.8 6.6-3.1.7m242.4 49.8s-71.9-24.3-73-25.8c-1.1-1.4-21.7-10-25.5-13.6-3.9-3.6-11.7-7.2-34.1-5-22.5 2.2-81.3 4.7-81.3 4.7l-53.7 3.1" class="st2"/><path d="M1923.3 453.4c0-1.1-33.1-15.4-52.2-16.5s-74-1.1-74-1.1l-31.1 1.1-33.7 7-31.7 3.3" class="st2"/><path d="M1648.1 398s41.3-7.5 52.3-5.3c10.6 2.1 10.6 2.1 19.6 5 0 0-70.1 27.3-72.3 60.4 0 0 .4-17.2 6.2-37.7 5.9-20.5-4.9-21.9-5.8-22.4-.8-.6-22.5 0-22.5 0" class="st1"/><path d="M1911 286.6c.5-1.8 11.1-27.4 10.2-27.4m-33.5 23.1s16.6 1.2 21.9-32.7c5.4-33.9 11.7-35.5 11.7-36.2" class="st2"/><path d="M1867.6 279.7s30.8-7.7 31.7-33.8.5-31.1 0-32.4c-.5-1.4-3.8-21.2 21.9-40.5" class="st2"/><path d="M1848.5 277.8c0-.7 6.2-5.3 6.9-6 .7-.7 18.2-16.6 18.2-16.6s12.1-5.8 9.3-19.6c-2.8-13.8-3-16.8-3-16.8s-2.6-11.9 6.5-25 32.3-37.4 32.3-37.4" class="st2"/><path d="m1828 275.8 24.6-18.2s15.4-6.8 18.7-38.7c3.3-32 8.4-36.7 18.4-47.6 10-11 14.5-14.7 13.8-13.1" class="st2"/><path d="M1809.5 275c-.3-2 27.8-24.4 27.8-24.4s15.2-8.2 13.5-24.7c-1.6-16.6 8.6-40.9 8.6-41.5 0-.7 12-24.1 27-27.4M1794 272.9l22.6-25s16.6-16.9 21-39.8-1.9-33.1 7.9-42.5c9.8-9.3 12.8-9.8 12.1-9.1m-77.3 114.6s8.6-7.7 9.3-8.2c.7-.5 11.2-8.2 17.5-20.3s10.5-24.6 10-25.5 5.1-18.9 4.9-20c-.2-1.2 1.7-9.1 3.9-25.7s15-15.2 15-15.2" class="st2"/><path d="m1764.3 269.1 15.9-17.1 13.8-12.6 5.2-5.8s4.3-2.8 6.3-23.6c2.1-20.8 3.8-28.4 3.2-29.2-.6-.7.6-19.8 13.8-24.6m-17.5-1s-18.7 7.8-20.9 45.9c-2.2 38.1-16.3 46.1-16.5 46.8s-19.6 18.4-19.6 18.4m-18.7-3.6 16.8-19.4s15.4-14.7 17.4-27.4c1.9-12.7 2.7-28.1 2.7-28.1s1-10.7 3.7-14.3c2.6-3.5 12.4-17.6 15.8-19.3m-76.8 106.9c.9-.9 15.2-13.8 15.2-13.8s12.2-9.4 14.4-34.5 5.9-33.4 5.9-34c0-.6 6.3-16.8 19.9-25.7m-76.2 107.5s9.4-7.7 9.7-8.1c.3-.4 9.7-6.3 17.1-24.9 7.4-18.5 7.1-24.7 6.9-25.5-.1-.7 1.8-16.3 7.5-27.4 5.7-11 18.7-22.1 18.7-22.1m-82.6 110.1 15.6-16.2s15.9-13.4 22.7-37.1c6.8-23.6 5.3-27.7 5.3-27.7s3-25.7 14.2-29.8" class="st2"/><path d="M1636.9 266.3c0-.9 2.7-5.7 2.7-5.7l24.4-16.2s22.3-14 25.2-33.1c2.9-19.1 4.6-30.4 4.6-31.4s3.1-19.7 16.6-28.2" class="st2"/><path d="M1615.5 269.1c.8-.6 24.2-23.6 24.8-23.9.6-.2 14.8-12.9 15.4-13.7s11.9-7.1 12.9-22 4.6-30.1 4.6-30.1 5.8-21.8 19.3-28.1" class="st2"/><path d="M1673.2 150.7c-.8.8-17.7 11-23.9 49.6-6.2 38.5-26.2 47.6-26.2 47.6s-2.9 1.9-3.1 2.5-24.3 22-24.3 22m55.3-120.5c-.6.8-26.1 19.8-33.8 70.6 0 0-5.9 35.5-52.3 53.5m-22.4 3s11.8-14.5 24.9-24c13.1-9.6 33.1-33.3 33.9-54.8.8-21.4 28.9-45.2 27.9-45.3m-21.1.6c-1.5.5-22.1 25.8-22.1 25.8s-5.5 3.9-7.2 25.3-30 47.2-31.4 48.4c-1.5 1.2-34.2 24.6-35.4 26.5m-16.4.2s2.3-7.2 14.6-18.1c12.3-10.9 20.8-20.5 20.8-20.5s8.7-9.2 11.8-15.4c3.1-6.2 9.8-24.2 9.8-24.2l7.3-17.5s6.6-18.2 29.5-29.8m-18.1.4s-27.4 12.7-40.3 45-15.2 35.6-15.5 36.5-7.1 14.9-22.2 28.2c-15.1 13.3-13.7 16.7-13.7 16.7m-19.7.5s7.2-7.8 15.2-12.4 18.1-12.6 21.6-26.2c3.6-13.6 10.4-40.6 10.4-40.6s1.5-15.7 14.5-26.7 26.5-20.4 26.5-20.4m-104.5 125.9s26.8-19.6 31.9-40.4c5-20.8 6.2-37.7 6.2-37.7s-2.1-5.3 12.5-20.8c14.5-15.4 25.8-26.7 25.8-26.7" class="st2"/><path d="M1496.1 161.6c-.9 2-24.8 24.4-29.5 47.8-4.7 23.3 1.8 7.3-6.2 33.4s-37.5 38.7-39 39.8m-23.6-.9s8-7.4 14.5-11.5 16-12.1 19-17.4c3-5.3 8.9-14.5 7.7-24-1.2-9.5 3-23.4 6.2-28.2 3.3-4.7 27.3-36.5 27.3-36.5m-19.4 1.7c-1.2.9-26.5 23.1-26.3 44.6.3 21.5-15.4 44.6-15.4 44.6s-11.8 15.7-27.6 26.8m-20.6-.9s22-13.6 31.5-34.5 9.9-26.4 10-30-1.2-14.4 6-24.6c7.1-10.2 21.7-24.3 21.7-24.3m-15.3 1.7-28.2 35.7s-7 6.9-10 32.8-34.7 42.7-35.1 42.5m-20.8.1 5.5-6.4s13.9-10.4 14.2-10.8 10.2-8.1 10.2-8.1l4.4-3.6s3.7-1.9 7.2-12.6c3.6-10.7 2.3-15.6 2.3-15.6s.3-7.5 5.2-16.3 11.1-16.1 11.1-16.1 20.9-20.5 20.3-20.3m-96.3 109c-1.7 1.4 13.4-10.8 14.3-11.2.6-.3 13.6-10.1 19.3-22.8 5.7-12.6 5.3-20.6 5.3-20.6s1.5-11.8 9.8-19.9c8.3-8.1 23.1-25.4 23.1-25.4s6.6-8.6 6-8m-89.5 108.7s1.9-7 11-13.8 20.1-16.6 21.8-33.7c1.7-17.1 8.3-29.8 14-35.4 5.7-5.7 25.1-22.4 24.6-22.8m-17.8 1.6c-.8.2-32.1 23.3-38.6 56.7s-15.1 32.9-15.1 32.9-10.7 5.4-17.5 13.5m-18.5-1.4s24.8-9.4 32.9-35.9c8.1-26.4 5.5-26.8 13-40.1s21.8-23.4 21.3-23.6" class="st2"/><path d="M1307.7 180.7c-.3.2-23.1 9.6-22.6 42.4s-32.9 44-32.9 44-8.9 4.9-13.9 9.8" class="st2"/><path d="M1218.9 275.8c.3-.9 18.8-9.7 18.8-9.7s22.6-7.9 31.9-38 15.3-45.4 21-47.4" class="st2"/><path d="M1278.7 180.8s-22.2 14.2-30.5 47.4-39.6 39.5-39.6 39.5-4 .4-9.1 6.5m-11-.9s1.7-4.2 13.5-12.7 26.3-22.8 28.8-32.8 5.8-20.4 10.3-27.1c4.5-6.7 18.3-19.9 18.3-19.9m-86 92.2s11.1-10 16.1-14.6c5-4.7 17.5-17.8 21.9-34.9 4.5-17.1 14.8-29.6 15.1-30.1.3-.5 16.6-13.3 16.3-13.8m-99.2 88s12-4 24.4-12.3c12.5-8.3 19.6-19.5 19.6-19.5s7.6-12.3 10.5-20.8c2.8-8.5 10.8-17.1 10.8-17.1s7.5-6.6 8.1-6.8c.7-.2 16.8-11.1 16.3-11.6m-14-.8c-.5-.3-18.9 8-40.4 42.4-21.4 34.4-48.9 39.8-49.4 39.5s-5.1-.2-5.7 0m-11.1-5.8s8.3-1.8 12.5-3.3c4.3-1.5 16.7-7.1 23.9-17.8 7.1-10.6 20.6-29.3 20.6-29.3s9.5-13.6 16-19.6 9.1-5.8 8.6-6.5" class="st2"/><path d="M1177.7 178.7s-16.8 19.8-24.9 35.2-21.4 21.9-21.4 21.9l-12.5 4.8-11.6 5.3-7 1m-6-4.9h8.7l16-13s11.5-10.7 17.5-17.4c6-6.6 22.4-28.6 22.4-28.6l3.1-4.7m-13.1 1c-.5.8-15.2 10.9-28.2 29.4-13 18.4-29.8 29.2-31.6 29.1m40-56.6c-.7.7-17.6 13.3-48.6 51.1m28.1-49.3s-18.1 13.5-36.4 33.6-32 27-32 27m-17.2-.8 13.1-9.7 16.5-11.8s24-19.4 30.2-34.7m-81.1 56.6c-.7.2 23.3-10 33.6-20.9 10.3-11 19.9-21.9 19.9-21.9s5.3-6.2 5.7-8.1m-28.3 7.5c-.3.7-19.1 33.1-48 42.9m-13.7.1s40-24.8 48.6-41.6m-78 41.6s44.1-20.2 53.4-39.3m-77.1 39.3 24.8-12.3s21.5-12.2 25-23.8" class="st2"/><path d="M1105.7 110c-.6 0 .4-89.1.4-89.1l-4.3.2V1.4h-7.9v97.8m.2 11.2s35.4.4 36 0 8 2.6 8 2.6v8.6l-7.3-2.4h-33.9c-.6 0-5.9 2.4-5.9 2.4v-7.8l3.1-3.4zm-.8 12.2s35.4.4 36 0 8 2.6 8 2.6v8.6l-7.3-2.4h-34c-.6 0-5.9 2.4-5.9 2.4V126l3.2-3.4zm0 12.3s35.4.4 36 0 8 2.6 8 2.6v8.6l-7.3-2.4h-34c-.6 0-5.9 2.4-5.9 2.4v-7.8l3.2-3.4z" class="st1"/><path d="M1093.3 146.1s35.4.4 36 0 8 2.6 8 2.6v8.6l-7.3-2.4h-34c-.6 0-5.9 2.4-5.9 2.4v-7.8l3.2-3.4z" class="st1"/><path d="M1093.7 157.2s35.4.4 36 0 8 2.6 8 2.6v8.6l-7.3-2.4h-33.9c-.6 0-5.9 2.4-5.9 2.4v-7.8l3.1-3.4z" class="st1"/><path d="M1093 180.1c.1 0 0-12.7 0-12.7l3.5-1.3h3.8l.7 12.4s12.3-.3 11.7-1.3c-.5-1-.9-11.2-.9-11.2h10.1v9.9l9.6-1.3V166m-37.6-66.9.2 11.3" class="st1"/><path d="M199.1 471.4s18.4-32.6 37.1-50C255 404 267 391.7 267 391.7s35.1-27.6 45.5-41 29.8-42.5 36.5-61.6 18.9-47.1 17.7-46.8" class="st2"/><path d="M403.5 234.4s-21.3 30.3-26 41-9.4 25-9.4 25l-5.4 9.8s-18.4 38.5-69.3 77.7-70.6 67.8-70.6 67.8-32.1 39.7-32.2 39.8" class="st2"/><path d="M526.8 611s1.3-46.7 32.9-82.2c31.5-35.5 70.1-69.1 99.6-89.7 29.6-20.6 78.8-48.8 84.1-51.9s61.1-34.9 61.1-34.9l37.8-24.4s36.3-25.2-3.9-46" class="st1"/><path d="M669.5 316.5c.2-1.7 16.4-13.2 47.9-27s52-23 52.3-23.3 7.9-3.4 4.8-5.1" class="st2"/><path d="M535.1 634.7s9.1-43.9 16.6-59.8c7.5-15.9 23.2-46 46-67.4 22.9-21.4 32.1-32.9 32.1-32.9l32.4-33.3 2.4-2.4 9.3-9.5" class="st1"/><path d="M562.8 768.1s37.3-43.4 79.5-67.2l42.3-23.8s77-51.5 58.3-85.4c0 0-14.4-30.5-14.9-30.7s-26.2-35-26.7-35.1c-.4-.2-45.7-57.7-37.4-86.2m966 445.5c-.6-1.2-67.3-82.8-72.9-92.9-5.6-10-33.9-52-33.9-52s-25.1-42.3-30.7-57.7-34.8-70.3-34.8-70.3-16.9-23.7-26.3-31.2-53.6-43.3-68-62.4c-14.4-19.1-42-52-42-52s-24.8-33-38.5-60.3" class="st1"/><path d="M1225.9 438.5c0-1.9 17.3-11 28.3-10.7s24.8 4.3 24.8 4.3 9.8 5 15.2 7.6c5.4 2.6 11.2 4.3 11.2 4.3m-76.4-3.7s18.6 2.8 19.5 3.6c.9.8 37.6 14.2 37.6 14.2s25.7 11.8 28.2 13.9 11.3-.1 11.4 0" class="st2"/><path d="M1352.2 504.5s-17.1-1.8-32.8-11.5c-15.7-9.7-81.7-47.6-81.7-47.6l-38.7-22.6s-57.5-28.2-60-28.2-45.6-15.7-46.2-16-60.5-21-60.5-21-48.9-22-50.1-22.1c-1.3-.2-71.3-23-71.3-23l-47.5-21.8-29.3-11-18.4-4.1-19.1-1.4-32.3 8.6m114.2-40.4c.5-.1 66.6.4 66.6.4l45.6.4h34.1l20.5 1s29.1-4.4 35.1-11.9c0 0 6.2 3 12.6 8.6 6.3 5.6 22.4 15.7 27 18.3 4.6 2.6 31.5 12.6 52.3 13.7 20.9 1.1 42.2 2.6 42.2 2.6l39.6 2.4s34.6 2.3 35 2.3c.4.1 41.2 0 41.2 0l60.1 1.7 72.7 1.7s51-1.5 76.2-4.2 70.1-8.7 70.7-9.1c.7-.4 30.5-4 30.5-4s31.5-4.2 40.6-4.9c9.1-.6 43.6-1.1 54.5 2.2 10.9 3.3 49.1 8.4 49.1 8.4l51.5 4.4s32.6 3.5 33.1 3.3 51.8 8.3 51.8 8.3m-931.6-87.3s3.1 3.8 11.2 2.8c8-1 35-4.3 35-4.3s34.9-10.4 40.4-11.5c5.5-1.2 32.5-5 41.1-5.4s42.2-4.7 50.2-3.9 43.6 0 43.6 0l43.2 1.7s38.1 2 63-.5c24.8-2.5 79.6-8.7 80.3-9.2.7-.5 21.5-1.7 21.5-1.7l63.5-5.4 45.3-5.6s11.6.7 12.3 0c.7-.7 56.8-1.7 57.9-1.5 1.1.3 41.6-2.4 41.6-2.4s30.2-3.7 37.4-3.1 37 1 37 1l38.3.9 25.2 1.2 49.5 2.5h42.7l39 1.5s12.8-1.9 12.5-1.5" class="st1"/><path d="M1861.5 156.2c.5-1.1 6.1-5.5 6.1-5.5l29.3-2.9 24.4-3.7m-166.3 8.5s2.9-3 7.3-3.7c4.4-.8 39-6 39-6s26.4-2 32.7-7.2m-177.7 16.2s3.4-4.1 13.3-6.2c9.9-2.1 33-6.8 33-6.8s6.7-3.2 7.8-4.1m-202 24.5c1.4.6 35.6-4.8 36.6-5.5 1.1-.7 38.9-7.1 45.9-11.9m-139.6 12-55.4 16.5m-123.7 10.3s42.1-8.8 61.9-13.1c19.9-4.3 44-7.2 44-7.2s11.3-.7 13.6-2.7m-187.4 20.8s32.4-8.8 50-11.2c17.6-2.5 43.5-6.7 44.8-6.9 1.3-.3 16.8-5.8 16-5.9" class="st2"/><path d="m1921.2 527.3-86.5-39s-53.2-21.1-84.6-18.1c-31.3 3-63.6 0-63.6 0l-25.7-.3m-439.6-34.1s20.9-10.9 29.6-16.7c8.7-5.7 24.8-23 67.2-4.3 42.5 18.6 77.4 32 78.8 32.7s46 18.7 88.1 16.9c42.1-1.8 74.6-10.2 84.3-35.4" class="st1"/><path d="M-4.5 617.8c20.4-11.7 37.6-21.9 51.1-30 11.5-6.9 19.8-12 30.3-20 11.5-8.8 19-14.5 26-23.4 13.6-17.3 16.6-35.9 18-44.2 1.5-8.9.3-8.3 1.1-28 1.3-28.4 2.1-42.9 8.3-54.8 1.9-3.6 10.1-11.1 26.3-26.3 19.3-18.1 18.7-16.3 26.5-24.5 13-13.7 11.2-15 28.3-35.7 2.4-2.9 7-8.4 10.6-16.8 1.7-3.9 3.8-12.3 4.4-14.6" class="st2"/><path d="M123.2 396.9s-17.2 30-10.8 75.4c6.4 45.4-7.8 62.9-56 89.4-48.3 26.5-59.4 35.3-60 36" class="st2"/><path d="M1720 397.7s8.6 2.5 11.1 1.6m-1586 480.2s94-52.2 123.6-83.6l3.2-4.3s38.3-32.8 134.9-63.2c29.6-9.3 52.3-18.5 69.5-26.7 39-18.5 50-32.3 50-32.3s11.4-22.4 8.3-37.9c-2.9-14.7-18-40.3-32-62.9l-2.4-3.9c-14.6-23.5-22.1-61.1-22.1-61.1s17.6-66.5 30.6-87.8l7.7-17.6" class="st1"/></g></svg>