<?xml version="1.0" encoding="UTF-8"?> <svg xmlns="http://www.w3.org/2000/svg" viewBox="0 0 175 60" xml:space="preserve"><g fill="#221f1f"><path d="M136.98 26.89a542.109 542.109 0 0 0-42.69-1.59c-9.86.02-19.73.14-29.59.34-1.81.03-1.82 1.95 0 1.93 8.73-.11 17.44-.09 26.17.2 8.67.28 17.36.68 26.01 1.25 5.54.36 11.07.81 16.59 1.35 1.23-1.29 2.4-2.44 3.52-3.47m35.62 4.17c-7.68-1.25-15.43-2.27-23.24-3.06-.14.17-.26.34-.4.52-.85 1.02-1.85 2.08-2.98 3.21 7.27.88 14.52 1.91 21.74 3.16 7.93 1.31 9.08-3.13 4.88-3.81" opacity=".3"></path><path d="m96.88 19.55-.76-.31-.16-.08c-.3-.14-.59-.28-.89-.43-.58-.28-1.15-.58-1.7-.87-1.16-.62-2.29-1.28-3.44-1.95l-.87-.51c-2.03-1.19-4.13-2.43-6.22-3.62l-2.3-1.3c-.24-.13-.47-.27-.71-.4-.11-.05-.22-.11-.33-.16l-.07-.03c-.46-.25-1.04-.55-1.89-.34-.28.07-.46.15-.62.23l-.15.08c-.51.27-.99.58-1.45.87-.18.11-.35.23-.53.34-.67.41-1.34.83-2 1.24-1.3.8-2.62 1.6-3.94 2.38-2.47 1.48-5.12 3.01-8.1 4.67-.79.45-4.73 2.71-5.51 3.17l-.36.21c-.27.16-.55.31-.82.48-.12.08-.25.15-.37.24-.24.15-.47.3-.7.42-.74.39-.73 1.17-.26 1.63.26.25.64.41 1.05.46.08 0 .15.01.23.01.35 0 .7-.09 1-.24.36-.18 3.92-2.19 4.33-2.38.33-.14.67-.29.99-.45.84-.41 1.53-.76 2.18-1.1 1.39-.73 2.8-1.48 4.19-2.23 3.09-1.66 5.78-3.14 8.26-4.53.77-.43 1.53-.87 2.3-1.3.21-.12.43-.24.65-.35.22-.12.44-.24.65-.36l1.37.88c1 .64 2.01 1.27 3.02 1.91l1.23.77c2 1.26 4.08 2.56 6.2 3.77.65.37 1.3.73 1.96 1.06.34.17.68.35.99.5l.62.35c.2.13.41.21.57.27l.09.03c.49.21 1.07.25 1.63.13.62-.14 1.16-.48 1.42-.91.42-.67.24-1.68-.77-2.21" opacity=".6"></path><path d="M60.92 37.47c.22-.26.28-.47.2-.59-.12-.16-.34-.28-.67-.33-.36-.05-.79-.03-1.28.07s-.96.28-1.4.55c-.24.16-.58.41-.99.74-.43.34-.88.71-1.37 1.11-.49.4-1.02.81-1.57 1.24-.55.42-1.07.79-1.58 1.12-.5.33-.97.58-1.41.75-.48.18-.87.22-1.17.09-.23-.1-.58-.37-.35-1.06.14-.43.44-.93.88-1.5.43-.55.99-1.13 1.64-1.73.66-.6 1.37-1.12 2.11-1.56.74-.45 1.51-.79 2.29-1.01.8-.23 1.53-.25 2.2-.08.13.04.34.05.59-.24.23-.26.38-.58.47-.94.09-.36.07-.71-.05-1.05-.11-.3-.36-.5-.77-.59-.64-.14-1.36-.12-2.15.04-.8.17-1.62.46-2.43.86-.83.4-1.64.91-2.44 1.49-.8.59-1.53 1.23-2.2 1.9-.58.59-1.1 1.21-1.59 1.9l-.07.07c-.64.36-1.39.74-2.26 1.14-.85.4-1.73.77-2.58 1.12-.85.34-1.64.63-2.34.86-.73.24-1.25.35-1.58.35s-.6-.12-.74-.35c-.14-.23-.14-.53 0-.93.13-.35.41-.77.8-1.25.39-.47.95-1.01 1.68-1.62 2.16-1.83 3.43-3.27 3.78-4.26.14-.41.14-.73 0-.94-.18-.27-.57-.43-1.18-.49-.8-.08-1.69.04-2.64.35-.97.31-2 .77-3.03 1.37-1.04.6-4.35 2.57-5.4 3.4 0 0-.2.17-.37.08-.16-.08.21-.39.21-.39.84-.74 1.72-1.51 2.63-2.31.9-.79 1.78-1.6 2.64-2.4.85-.79 1.64-1.59 2.35-2.37.71-.77 1.3-1.5 1.77-2.18.46-.66.77-1.28.92-1.83.14-.51.1-.94-.15-1.3-.31-.41-.8-.53-1.49-.35-.74.2-1.68.77-2.77 1.73-1.12.97-2.41 2.33-3.84 4.07-1.45 1.74-3.02 3.94-4.71 6.52-.27.41-.56.89-.87 1.42l-.15.27-.14.25-.04.03c-1.56.96-3.16 1.93-4.8 2.88-1.63.96-3.26 1.85-4.85 2.66a65.76 65.76 0 0 1-4.61 2.14c-1.48.61-2.86 1.04-4.1 1.29-1.25.25-2.38.29-3.33.13-.99-.17-1.76-.65-2.29-1.41-.57-.84-.69-1.91-.35-3.21.33-1.26.99-2.63 1.95-4.07.95-1.43 2.17-2.89 3.6-4.33 1.43-1.43 3-2.76 4.66-3.94 1.65-1.17 3.39-2.14 5.17-2.88 1.78-.74 3.5-1.11 5.12-1.11.95 0 1.65.15 2.12.47.49.33.74.74.73 1.23 0 .25-.16.45-.32.63-.16.21-.33.4-.32.68.02.65.45 1.19 1.08 1.37.58.15 1.41-.02 2-.98.56-.91.57-1.73.48-2.26-.12-.67-.43-1.25-.93-1.72-.51-.48-1.19-.84-2.01-1.05a8.2 8.2 0 0 0-2.14-.27c-.2 0-.39 0-.6.02-1.76.12-3.48.43-5.11.94-1.63.51-3.22 1.16-4.7 1.95s-2.9 1.69-4.22 2.69c-1.31 1-2.55 2.05-3.66 3.14a35.07 35.07 0 0 0-3.01 3.31c-.89 1.12-1.66 2.18-2.31 3.17-.94 1.48-1.47 2.93-1.57 4.31-.1 1.37.18 2.55.83 3.53.66.98 1.69 1.7 3.07 2.16 1.39.46 3.13.5 5.17.12 1.28-.23 2.63-.6 4.02-1.12 1.39-.51 2.8-1.12 4.18-1.78 1.38-.66 2.73-1.37 4.02-2.11 1.3-.75 2.5-1.45 3.53-2.11.49-.3.93-.6 1.36-.88l.47-.3-.14.54c-.15.56-.14 1 .02 1.31.18.34.42.55.71.67s.59.12.9.02c.27-.09.43-.26.49-.53l.03-.07c.33-.52.83-1.13 1.49-1.8.65-.66 1.36-1.36 2.14-2.04.77-.68 1.59-1.37 2.42-2.01.83-.64 1.63-1.22 2.35-1.7.72-.49 1.37-.87 1.93-1.14.61-.3 1.02-.4 1.27-.31.07.02.25.08.27.25 0 .04.01.16-.11.26-.07.05-.23.18-.5.4-.26.22-.65.53-1.14.97-.48.42-1.08 1.03-1.78 1.83-.69.78-1.22 1.55-1.56 2.29-.33.73-.48 1.38-.46 1.93.02.54.22.97.58 1.28.36.33.92.49 1.64.49.87 0 1.86-.16 2.99-.49 1.14-.33 2.26-.72 3.34-1.17.91-.38 1.8-.8 2.68-1.27l.33-.17v.36c-.02.28 0 .54.07.78.13.54.46.98 1 1.34.66.43 1.37.6 2.12.46.78-.14 1.58-.42 2.38-.86.8-.43 1.59-.96 2.33-1.56.76-.62 1.45-1.17 2.07-1.66l1.4-1.12-1.1 1.42c-.25.33-.47.73-.65 1.19-.18.46-.25.89-.25 1.29s.12.71.34.98c.21.25.59.38 1.13.38.6.02.65 0 .99-.1.13-.04.3-.09.55-.16l.46-.21c.26-.12.27-.12.53-.26.54-.3.9-.62 1.07-.97.14-.28.16-.51.07-.71-.1-.2-.3-.31-.6-.38-.24-.04-.41-.04-.66.02l-.09.02c-.39.12-.68.12-.87 0-.16-.08-.38-.29-.22-.84.1-.33.27-.69.5-1.11.23-.41.51-.83.84-1.26.32-.42.62-.81.92-1.16m14.84-2.01c.22-.31.3-.71.23-1.17-.13-1.05-.78-1.67-2.01-1.96-1.07-.29-2.33-.04-2.99.13-1.49.4-2.81 1.31-3.47 2.39-.42.68-.56 1.43-.39 2.16.22 1.01.94 1.76 2.07 2.16l.22.08c.44.15 1.11.38 1.46.54.22.1.38.25.47.43.11.23.08.53-.08.79-.12.21-.31.38-.59.56-.58.37-1.29.59-2.05.62-.8.03-1.64-.16-2.2-.34-.38-.12-.51-.2-.64-.26l-.16-.09c-.12-.08-.16-.11-.2-.13l-.2-.2s-.04-.05-.05-.08l-.09-.13.13-.14c.21-.24.33-.52.33-.83 0-.76-.67-1.37-1.5-1.37h-.2c-.83.03-1.49.53-1.73 1.35-.25.84-.19 1.67.2 2.41.53 1.01 1.63 1.78 2.96 2.06.46.1.95.15 1.46.15 1.69 0 3.45-.55 4.95-1.55 1.16-.77 1.97-1.77 2.27-2.81.33-1.11-.03-2.19-.93-2.83-.53-.37-1.01-.49-1.57-.63-.2-.05-.41-.1-.62-.16l-.1-.03c-.16-.04-.41-.12-.5-.15-.27-.12-.43-.3-.47-.56-.07-.42.22-.88.78-1.22.51-.35 1.73-.65 2.33-.55h.08c.2.03.54.08.57.37.02.17-.09.29-.26.45-.13.1-.19.21-.2.34-.01.24.2.49.39.63.31.23.87.35 1.25.26.34-.08.8-.25 1.08-.66v-.02zm12.76 0c.22-.3.3-.71.23-1.17-.13-1.05-.78-1.67-2.01-1.96-1.07-.29-2.33-.04-2.99.13-1.49.4-2.81 1.31-3.47 2.39-.42.68-.56 1.43-.39 2.16.22 1.01.94 1.76 2.07 2.16l.22.08c.47.16 1.12.39 1.46.54.22.1.38.25.47.43.11.23.08.53-.08.79-.12.21-.31.38-.59.56-.58.37-1.29.59-2.05.62-.8.04-1.63-.16-2.2-.34-.38-.12-.51-.2-.64-.26l-.16-.09c-.11-.08-.16-.11-.2-.12l-.21-.21s-.04-.05-.05-.08l-.09-.13.12-.14c.21-.24.33-.52.33-.83 0-.76-.67-1.37-1.5-1.37h-.2c-.83.03-1.48.53-1.73 1.35-.25.84-.19 1.67.2 2.41.53 1.01 1.63 1.78 2.96 2.06.46.1.95.15 1.46.15 1.69 0 3.45-.55 4.95-1.55 1.16-.77 1.97-1.77 2.27-2.81.33-1.11-.03-2.19-.93-2.83-.53-.37-1.01-.49-1.57-.63-.2-.05-.41-.1-.62-.16l-.1-.03c-.16-.04-.41-.12-.5-.15-.27-.12-.43-.3-.47-.56-.08-.42.22-.88.78-1.22.51-.36 1.74-.65 2.33-.55h.08c.2.03.54.08.57.37.01.18-.09.29-.26.45-.12.1-.19.22-.2.34-.01.3.3.56.39.63.31.23.87.35 1.25.26.34-.08.8-.25 1.08-.66m4.58 1.57.12-.14c.35-.42.72-.83 1.1-1.18a8.7 8.7 0 0 1 1.08-.89c.35-.24.68-.4.99-.49.35-.1.64-.07.84.13.26.25.49.67.16 1.3-.24.45-.6.85-1.08 1.19-.48.35-1.02.58-1.58.67-.13.02-.25.03-.36.03-.45 0-.82-.16-1.13-.49l-.12-.14h-.02zm22.22-2.08c.31-.49.32-.99.04-1.48-.41-.73-1.28-1.16-1.74-1.16-.84 0-1.11.12-1.82.46s-1.04.77-1.28 1.1c-.13.17-.24.31-.37.39-.03.02-.05.02-.09.03l-.54.17.27-.48c.08-.14.12-.26.13-.37.02-.23-.07-.45-.25-.64-.35-.37-.99-.6-1.7-.6-1.12 0-2.11.58-2.17 1.27-.02.29.14.58.45.8l.15.12-.11.16c-.35.55-.78 1.29-1.03 1.79l-.03.05-.05.03c-.76.43-2.05 1.13-3.15 1.73-.9.48-1.66.9-1.91 1.04-1.24.72-2.45 1.35-3.64 1.86-1.18.51-2.28.87-3.25 1.06-1.04.21-1.75.12-2.2-.28-.34-.28-.43-.73-.26-1.3.14-.52.42-1.09.81-1.7l.18-.28.19.27c.12.18.31.37.55.52.23.15.53.26.87.3.35.05.76.03 1.19-.05.44-.09.94-.28 1.48-.59.97-.53 1.75-1.12 2.33-1.74.57-.62.97-1.22 1.2-1.79.22-.58.31-1.11.23-1.58-.07-.48-.25-.87-.56-1.17-.38-.4-.97-.63-1.76-.68h-.26c-.74 0-1.57.2-2.44.58-1 .43-2.04 1.14-3.1 2.1-1.06.96-2.03 2.24-2.88 3.8-.57 1.04-.9 2-.96 2.86-.08.83.09 1.51.48 2.02s1.03.86 1.89 1.03c.88.17 2.01.09 3.37-.26 1.37-.35 3-1 4.84-1.93.66-.33 2.47-1.3 4.15-2.21l.82-.45-.54.76c-.66.92-1.21 1.73-1.86 2.96-.12.23-.12.45-.02.63.11.2.34.33.63.34 1.81.13 2.46-.2 3.47-1.75.44-.67.76-1.31 1.08-1.99.28-.58.58-1.17.98-1.87 1.58-2.7 3.19-3.84 5.06-3.6.32.04.62.16.92.28.82.33 1.46.59 2.17-.53m31.32-10.2c-.36-.39-.92-.51-1.71-.35-.82.16-1.86.75-3.07 1.72-1.23.98-2.65 2.42-4.23 4.32-1.58 1.89-3.33 4.35-5.2 7.34-.19.3-.36.61-.55.98l-.08.08c-.16.11-.43.26-.79.48-.36.21-.78.45-1.24.69-.46.26-.95.52-1.46.79s-1 .51-1.46.71c-.46.2-.88.36-1.23.46-.43.12-.71.13-.91 0-.14-.07-.38-.27-.21-.84.1-.33.27-.69.51-1.12.24-.41.53-.84.85-1.26.33-.42.63-.81.93-1.17.22-.27.28-.47.2-.6-.12-.17-.35-.28-.68-.34-.36-.05-.8-.04-1.3.07-.5.1-.98.29-1.42.56-.24.16-.58.4-1.01.75-.43.34-.9.72-1.39 1.12-.5.4-1.03.83-1.59 1.25-.56.42-1.1.8-1.6 1.13-.51.33-1 .58-1.43.75-.49.18-.88.22-1.19.09-.23-.1-.59-.37-.36-1.06.14-.45.44-.93.89-1.51.44-.55 1-1.14 1.68-1.74.68-.6 1.4-1.13 2.15-1.57a9.72 9.72 0 0 1 2.33-1.02c.81-.23 1.57-.25 2.24-.08.14.04.35.05.61-.24.23-.26.39-.59.48-.96.09-.37.08-.72-.05-1.06-.11-.31-.37-.5-.79-.6-.65-.14-1.39-.12-2.19.04-.81.17-1.64.47-2.47.87-.84.41-1.67.91-2.49 1.5-.81.6-1.57 1.24-2.23 1.92-.62.63-.95.98-1.61 1.91l-.05.07c-.24.36-1.49 2.33-1.24 4.03.08.49.4.92 1.01 1.32.68.45 1.39.6 2.17.47.8-.14 1.61-.43 2.42-.86.82-.43 1.62-.97 2.38-1.57.78-.62 1.48-1.18 2.1-1.68l1.4-1.11-1.09 1.41c-.26.34-.48.74-.66 1.21-.17.46-.26.89-.25 1.3 0 .39.12.72.35.99.21.26.6.39 1.16.39.73 0 1.58-.17 2.51-.51.94-.35 1.88-.77 2.79-1.25.65-.35 1.29-.71 1.96-1.12l.35-.22-.02.41c-.02.35 0 .65.04.91.12.62.42 1.07.92 1.4.5.33 1.24.43 2.2.33.99-.11 2.21-.5 3.67-1.16 1.47-.66 3.21-1.69 5.18-3.07.51-.35.83-.68.95-.99.11-.28.11-.51 0-.68-.11-.16-.33-.26-.65-.29-.34-.03-.74.1-1.19.36-.49.29-1.09.66-1.84 1.1-.74.45-1.5.85-2.26 1.19-.77.35-1.49.59-2.13.73-.71.15-1.25.04-1.6-.33-.3-.31-.32-.81-.04-1.51.24-.62.63-1.35 1.17-2.14.79-.74 1.65-1.52 2.61-2.36s1.89-1.68 2.85-2.54c.93-.85 1.85-1.7 2.72-2.57.85-.85 1.58-1.65 2.16-2.39.57-.72.96-1.39 1.17-1.98.19-.54.14-.97-.13-1.29"></path></g></svg> 